<svg width="16" height="16" viewBox="0 0 16 16" fill="none" xmlns="http://www.w3.org/2000/svg">
<path d="M13.9313 2.0688C13.6313 1.76885 13.2244 1.60034 12.8001 1.60034C12.3758 1.60034 11.9689 1.76885 11.6689 2.0688L5.6001 8.1376V10.4H7.8625L13.9313 4.3312C14.2312 4.03116 14.3998 3.62426 14.3998 3.2C14.3998 2.77574 14.2312 2.36884 13.9313 2.0688Z" fill="white"/>
<path fill-rule="evenodd" clip-rule="evenodd" d="M1.6001 4.79995C1.6001 4.3756 1.76867 3.96864 2.06873 3.66858C2.36879 3.36852 2.77575 3.19995 3.2001 3.19995H6.4001C6.61227 3.19995 6.81575 3.28424 6.96578 3.43427C7.11581 3.58429 7.2001 3.78778 7.2001 3.99995C7.2001 4.21212 7.11581 4.41561 6.96578 4.56564C6.81575 4.71567 6.61227 4.79995 6.4001 4.79995H3.2001V12.7999H11.2001V9.59995C11.2001 9.38778 11.2844 9.18429 11.4344 9.03427C11.5844 8.88424 11.7879 8.79995 12.0001 8.79995C12.2123 8.79995 12.4158 8.88424 12.5658 9.03427C12.7158 9.18429 12.8001 9.38778 12.8001 9.59995V12.7999C12.8001 13.2243 12.6315 13.6313 12.3315 13.9313C12.0314 14.2314 11.6244 14.4 11.2001 14.4H3.2001C2.77575 14.4 2.36879 14.2314 2.06873 13.9313C1.76867 13.6313 1.6001 13.2243 1.6001 12.7999V4.79995Z" fill="white"/>
</svg>
