<svg width="171" height="48" viewBox="0 0 171 48" fill="none" xmlns="http://www.w3.org/2000/svg">
<rect width="171" height="48" rx="24" fill="#DA722C"/>
<path d="M45.9313 18.0688C45.6313 17.7688 45.2244 17.6003 44.8001 17.6003C44.3758 17.6003 43.9689 17.7688 43.6689 18.0688L37.6001 24.1376V26.4H39.8625L45.9313 20.3312C46.2312 20.0312 46.3998 19.6243 46.3998 19.2C46.3998 18.7757 46.2312 18.3688 45.9313 18.0688Z" fill="white"/>
<path fill-rule="evenodd" clip-rule="evenodd" d="M33.6001 20.8C33.6001 20.3756 33.7687 19.9686 34.0687 19.6686C34.3688 19.3685 34.7758 19.2 35.2001 19.2H38.4001C38.6123 19.2 38.8158 19.2842 38.9658 19.4343C39.1158 19.5843 39.2001 19.7878 39.2001 20C39.2001 20.2121 39.1158 20.4156 38.9658 20.5656C38.8158 20.7157 38.6123 20.8 38.4001 20.8H35.2001V28.7999H43.2001V25.6C43.2001 25.3878 43.2844 25.1843 43.4344 25.0343C43.5844 24.8842 43.7879 24.8 44.0001 24.8C44.2123 24.8 44.4158 24.8842 44.5658 25.0343C44.7158 25.1843 44.8001 25.3878 44.8001 25.6V28.7999C44.8001 29.2243 44.6315 29.6313 44.3315 29.9313C44.0314 30.2314 43.6244 30.4 43.2001 30.4H35.2001C34.7758 30.4 34.3688 30.2314 34.0687 29.9313C33.7687 29.6313 33.6001 29.2243 33.6001 28.7999V20.8Z" fill="white"/>
<path d="M61.728 20.96V23.232H65.392V25.344H61.728V27.808H65.872V30H58.992V18.768H65.872V20.96H61.728ZM73.0883 20.976C74.1336 20.976 74.9656 21.3173 75.5843 22C76.2136 22.672 76.5283 23.6 76.5283 24.784V30H73.8083V25.152C73.8083 24.5547 73.6536 24.0907 73.3443 23.76C73.0349 23.4293 72.6189 23.264 72.0963 23.264C71.5736 23.264 71.1576 23.4293 70.8483 23.76C70.5389 24.0907 70.3843 24.5547 70.3843 25.152V30H67.6483V21.072H70.3843V22.256C70.6616 21.8613 71.0349 21.552 71.5043 21.328C71.9736 21.0933 72.5016 20.976 73.0883 20.976ZM81.1655 22.56C81.4855 22.0693 81.8855 21.6853 82.3655 21.408C82.8455 21.12 83.3788 20.976 83.9655 20.976V23.872H83.2135C82.5308 23.872 82.0188 24.0213 81.6775 24.32C81.3362 24.608 81.1655 25.12 81.1655 25.856V30H78.4295V21.072H81.1655V22.56ZM89.3373 30.128C88.4626 30.128 87.6733 29.9413 86.9693 29.568C86.2759 29.1947 85.7266 28.6613 85.3213 27.968C84.9266 27.2747 84.7293 26.464 84.7293 25.536C84.7293 24.6187 84.9319 23.8133 85.3372 23.12C85.7426 22.416 86.2973 21.8773 87.0013 21.504C87.7053 21.1307 88.4946 20.944 89.3693 20.944C90.2439 20.944 91.0333 21.1307 91.7373 21.504C92.4413 21.8773 92.9959 22.416 93.4013 23.12C93.8066 23.8133 94.0093 24.6187 94.0093 25.536C94.0093 26.4533 93.8013 27.264 93.3853 27.968C92.9799 28.6613 92.4199 29.1947 91.7053 29.568C91.0013 29.9413 90.2119 30.128 89.3373 30.128ZM89.3373 27.76C89.8599 27.76 90.3026 27.568 90.6653 27.184C91.0386 26.8 91.2253 26.2507 91.2253 25.536C91.2253 24.8213 91.0439 24.272 90.6813 23.888C90.3293 23.504 89.8919 23.312 89.3693 23.312C88.8359 23.312 88.3933 23.504 88.0413 23.888C87.6893 24.2613 87.5133 24.8107 87.5133 25.536C87.5133 26.2507 87.6839 26.8 88.0253 27.184C88.3773 27.568 88.8146 27.76 89.3373 27.76ZM98.1968 18.16V30H95.4608V18.16H98.1968ZM113.618 30H110.882L106.306 23.072V30H103.57V18.768H106.306L110.882 25.728V18.768H113.618V30ZM119.665 30.128C118.791 30.128 118.001 29.9413 117.297 29.568C116.604 29.1947 116.055 28.6613 115.649 27.968C115.255 27.2747 115.057 26.464 115.057 25.536C115.057 24.6187 115.26 23.8133 115.665 23.12C116.071 22.416 116.625 21.8773 117.329 21.504C118.033 21.1307 118.823 20.944 119.697 20.944C120.572 20.944 121.361 21.1307 122.065 21.504C122.769 21.8773 123.324 22.416 123.729 23.12C124.135 23.8133 124.337 24.6187 124.337 25.536C124.337 26.4533 124.129 27.264 123.713 27.968C123.308 28.6613 122.748 29.1947 122.033 29.568C121.329 29.9413 120.54 30.128 119.665 30.128ZM119.665 27.76C120.188 27.76 120.631 27.568 120.993 27.184C121.367 26.8 121.553 26.2507 121.553 25.536C121.553 24.8213 121.372 24.272 121.009 23.888C120.657 23.504 120.22 23.312 119.697 23.312C119.164 23.312 118.721 23.504 118.369 23.888C118.017 24.2613 117.841 24.8107 117.841 25.536C117.841 26.2507 118.012 26.8 118.353 27.184C118.705 27.568 119.143 27.76 119.665 27.76ZM138.605 21.072L136.189 30H133.165L131.757 24.208L130.301 30H127.293L124.861 21.072H127.597L128.861 27.456L130.365 21.072H133.261L134.781 27.424L136.029 21.072H138.605Z" fill="white"/>
</svg>
